<svg xmlns="http://www.w3.org/2000/svg" version="1.1" xmlns:xlink="http://www.w3.org/1999/xlink" xmlns:svgjs="http://svgjs.dev/svgjs" width="1500" height="1500" viewBox="0 0 1500 1500"><rect width="1500" height="1500" fill="#000000"></rect><g transform="matrix(0.6666666666666666,0,0,0.6666666666666666,231.66903687132742,634.4394715237663)"><svg viewBox="0 0 403 93" data-background-color="#282634" preserveAspectRatio="xMidYMid meet" height="346" width="1500" xmlns="http://www.w3.org/2000/svg" xmlns:xlink="http://www.w3.org/1999/xlink"><g id="tight-bounds" transform="matrix(1,0,0,1,7.465567972382871,0.09160035385718857)"><svg viewBox="0 0 395.52 92.81679929228561" height="92.81679929228561" width="395.52"><g><svg viewBox="0 0 532.7215648325724 125.01393244775787" height="92.81679929228561" width="395.52"><g><rect width="5.317413459304348" height="90.91100007959234" x="105.68684213135504" y="17.051466184082763" fill="#ffffff" opacity="1" stroke-width="0" stroke="transparent" fill-opacity="1" class="rect-qz-0" data-fill-palette-color="primary" rx="1%" id="qz-0" data-palette-color="#ff4057"></rect></g><g><rect width="5.317413459304348" height="90.91100007959234" x="117.96422085152894" y="17.051466184082763" fill="#ffffff" opacity="1" stroke-width="0" stroke="transparent" fill-opacity="1" class="rect-qz-1" data-fill-palette-color="primary" rx="1%" id="qz-1" data-palette-color="#ff4057"></rect></g><g transform="matrix(1,0,0,1,137.20156483257242,17.2776129504499)"><svg viewBox="0 0 395.52 90.45870654685807" height="90.45870654685807" width="395.52"><g id="textblocktransform"><svg viewBox="0 0 395.52 90.45870654685807" height="90.45870654685807" width="395.52" id="textblock"><g><svg viewBox="0 0 395.52 58.963768115942024" height="58.963768115942024" width="395.52"><g transform="matrix(1,0,0,1,0,0)"><svg width="395.52" viewBox="3.86 -34.06 323.41999999999996 48.220000000000006" height="58.963768115942024" data-palette-color="#ff4057"><g class="wordmark-text-0" data-fill-palette-color="primary" id="text-0"><path d="M3.86 0L3.86-6.71 8.89-6.71Q9.55-5.71 10.77-4.96 11.99-4.2 13.56-3.71 15.14-3.22 17.02-2.98 18.9-2.73 20.87-2.73L20.87-2.73Q22.51-2.73 23.66-2.98 24.8-3.22 25.51-3.66 26.22-4.1 26.54-4.69 26.86-5.27 26.86-5.98L26.86-5.98Q26.86-7.47 24.48-8.53 22.09-9.59 16.94-10.16L16.94-10.16Q13.53-10.52 11.23-11.17 8.94-11.82 7.53-12.74 6.13-13.67 5.53-14.87 4.93-16.06 4.93-17.5L4.93-17.5Q4.93-18.75 5.71-19.97 6.49-21.19 8.09-22.16 9.69-23.12 12.1-23.71 14.5-24.29 17.75-24.29L17.75-24.29Q18.8-24.29 19.9-24.15 21-24 22.05-23.72 23.1-23.44 24.05-23.05 25-22.66 25.76-22.17L25.76-22.17 25.76-23.54 31.01-23.54 31.01-16.94 25.76-16.94Q25.49-17.7 24.63-18.38 23.78-19.07 22.61-19.58 21.44-20.09 20.12-20.4 18.8-20.7 17.63-20.7L17.63-20.7Q16.09-20.7 14.72-20.48 13.35-20.26 12.35-19.86 11.35-19.46 10.77-18.9 10.18-18.33 10.18-17.65L10.18-17.65Q10.18-17.02 10.63-16.5 11.08-15.99 12.15-15.55 13.21-15.11 14.98-14.73 16.75-14.36 19.38-14.04L19.38-14.04Q22.9-13.6 25.32-12.92 27.73-12.23 29.25-11.24 30.76-10.25 31.43-8.94 32.1-7.62 32.1-5.91L32.1-5.91Q32.1-4.66 31.35-3.48 30.59-2.29 29.14-1.35 27.69-0.42 25.57 0.16 23.46 0.73 20.73 0.73L20.73 0.73Q18.97 0.73 17.43 0.6 15.89 0.46 14.48 0.15 13.06-0.17 11.74-0.66 10.42-1.15 9.11-1.86L9.11-1.86 9.11 0 3.86 0ZM26.95-14.31L26.95-15.23 32.76-15.23 32.76-22.51 33.74-22.51 33.74-14.31 26.95-14.31ZM11.96-17.65L11.96-17.65Q12.04-17.97 12.55-18.24 13.06-18.51 13.85-18.71 14.65-18.92 15.61-19.04 16.58-19.17 17.55-19.17L17.55-19.17Q18.38-19.17 19.27-19.04 20.17-18.92 20.96-18.7 21.75-18.48 22.4-18.15 23.05-17.82 23.41-17.41L23.41-17.41Q22.85-17.65 22.07-17.81 21.29-17.97 20.47-18.07 19.65-18.16 18.87-18.21 18.09-18.26 17.55-18.26L17.55-18.26Q15.58-18.26 14.12-18.07 12.67-17.87 11.96-17.65ZM5.27-12.82L5.27-12.82Q5.96-11.94 6.91-11.25 7.86-10.57 9.2-10.03 10.55-9.5 12.33-9.12 14.11-8.74 16.43-8.47L16.43-8.47Q18.55-8.23 20.12-7.95 21.68-7.67 22.73-7.32 23.78-6.98 24.37-6.56 24.95-6.13 25.12-5.59L25.12-5.59Q24.61-5.93 23.95-6.19 23.29-6.45 22.27-6.67 21.24-6.88 19.74-7.1 18.24-7.32 16.02-7.59L16.02-7.59Q11.43-8.13 8.76-9.34 6.1-10.55 5.27-12.82ZM5.05 1.71L10.86 1.71 10.86 0.68Q11.55 1 12.6 1.31 13.65 1.61 14.95 1.87 16.26 2.12 17.72 2.28 19.19 2.44 20.7 2.44L20.7 2.44Q23.73 2.44 26.17 1.77 28.61 1.1 30.32-0.04 32.03-1.17 32.95-2.67 33.86-4.17 33.86-5.83L33.86-5.83Q33.86-6.49 33.79-7.06 33.72-7.62 33.53-8.13 33.35-8.64 33.04-9.16 32.74-9.67 32.28-10.23L32.28-10.23Q34.84-8.72 34.84-5.83L34.84-5.83Q34.84-3.88 33.84-2.2 32.84-0.51 30.99 0.72 29.15 1.95 26.54 2.66 23.93 3.37 20.68 3.37L20.68 3.37Q19.48 3.37 18.26 3.26 17.04 3.15 15.89 2.95 14.75 2.76 13.72 2.49 12.7 2.22 11.89 1.88L11.89 1.88 11.89 2.69 5.05 2.69 5.05 1.71ZM41.87 7.86L46.02 7.86 46.02-19.41 40.65-19.41 40.65-23.56 51.27-23.56 51.27-20.31Q53.1-22.17 55.71-23.23 58.32-24.29 61.4-24.29L61.4-24.29Q64.77-24.29 67.38-23.28 69.99-22.27 71.77-20.59 73.56-18.92 74.48-16.77 75.41-14.62 75.41-12.33L75.41-12.33Q75.41-9.35 74.4-7.02 73.39-4.69 71.56-3.08 69.72-1.46 67.19-0.61 64.65 0.24 61.57 0.24L61.57 0.24Q58.4 0.24 55.75-0.72 53.1-1.68 51.27-3.52L51.27-3.52 51.27 7.86 57.86 7.86 57.86 11.52 41.87 11.52 41.87 7.86ZM52.9 6.64L52.9-0.05Q54.66 0.93 56.97 1.44 59.27 1.95 61.62 1.95L61.62 1.95Q64.84 1.95 67.67 1.04 70.51 0.12 72.62-1.67 74.73-3.47 75.95-6.14 77.17-8.81 77.17-12.33L77.17-12.33Q77.17-13.84 76.73-15.44 76.29-17.04 75.49-18.54 74.68-20.04 73.51-21.36 72.34-22.68 70.87-23.63L70.87-23.63Q72.7-22.8 74.08-21.5 75.46-20.19 76.38-18.65 77.29-17.11 77.76-15.47 78.22-13.82 78.22-12.33L78.22-12.33Q78.22-8.89 77.07-6.08 75.93-3.27 73.76-1.28 71.6 0.71 68.52 1.79 65.43 2.88 61.55 2.88L61.55 2.88Q60.57 2.88 59.54 2.77 58.52 2.66 57.52 2.47 56.52 2.27 55.58 2 54.64 1.73 53.88 1.39L53.88 1.39 53.88 6.64 52.9 6.64ZM51.27-11.84L51.27-11.84Q51.27-9.89 52.08-8.35 52.9-6.81 54.32-5.74 55.73-4.66 57.63-4.09 59.52-3.52 61.69-3.52L61.69-3.52Q63.62-3.52 65.17-4.13 66.72-4.74 67.82-5.86 68.92-6.98 69.52-8.58 70.11-10.18 70.11-12.13L70.11-12.13Q70.11-13.99 69.42-15.54 68.72-17.09 67.5-18.19 66.28-19.29 64.63-19.9 62.99-20.51 61.08-20.51L61.08-20.51Q59.01-20.51 57.21-19.9 55.42-19.29 54.1-18.15 52.78-17.02 52.02-15.42 51.27-13.82 51.27-11.84ZM53.02-11.87L53.02-11.87Q53.02-13.26 53.6-14.53 54.17-15.8 55.22-16.75 56.27-17.7 57.74-18.26 59.2-18.82 61.01-18.82L61.01-18.82Q62.94-18.82 64.43-18.15 65.92-17.48 66.7-16.38L66.7-16.38Q65.23-17.31 63.83-17.59 62.42-17.87 61.01-17.87L61.01-17.87Q59.42-17.87 58.14-17.37 56.86-16.87 55.94-16.05 55.03-15.23 54.54-14.16 54.05-13.09 54.05-11.94L54.05-11.94Q54.05-9.72 55.17-8.11 56.3-6.49 58.81-5.32L58.81-5.32Q57.52-5.59 56.46-6.16 55.39-6.74 54.62-7.58 53.85-8.42 53.44-9.5 53.02-10.57 53.02-11.87ZM42.11-16.77L42.11-17.7 44.99-17.7 44.99-16.77 42.11-16.77ZM43.33 13.23L59.62 13.23 59.62 9.23 60.59 9.23 60.59 14.16 43.33 14.16 43.33 13.23ZM86.66-5.47L86.66-5.47Q86.18-6.71 85.94-8.18 85.71-9.64 85.71-11.4L85.71-11.4 85.71-19.41 81.56-19.41 81.56-23.56 90.96-23.56 90.96-13.48Q90.96-11.5 91.14-9.95 91.33-8.4 91.67-7.52L91.67-7.52Q92.11-6.4 92.82-5.62 93.53-4.83 94.42-4.35 95.31-3.86 96.35-3.64 97.38-3.42 98.51-3.42L98.51-3.42Q99.7-3.42 100.98-3.86 102.27-4.3 103.46-5.08 104.66-5.86 105.7-6.93 106.73-8.01 107.44-9.25L107.44-9.25 107.44-19.41 102.07-19.41 102.07-23.56 112.69-23.56 112.69-3.66 116.84-3.66 116.84 0 107.44 0 107.44-3.71Q106.66-2.76 105.55-1.95 104.44-1.15 103.08-0.55 101.73 0.05 100.17 0.39 98.6 0.73 96.92 0.73L96.92 0.73Q93.28 0.73 90.61-0.79 87.93-2.32 86.66-5.47ZM114.4-5.13L114.4-22.31 115.38-22.31 115.38-5.13 114.4-5.13ZM92.72-12.01L92.72-22.31 93.7-22.31 93.7-12.28Q93.7-10.38 94.06-9.11 94.43-7.84 95.04-7.03 95.65-6.23 96.43-5.79 97.21-5.35 98.04-5.1L98.04-5.1Q95.48-5.13 94.1-6.8 92.72-8.47 92.72-12.01L92.72-12.01ZM103.54-16.77L103.54-17.7 106.42-17.7 106.42-16.77 103.54-16.77ZM83.03-16.77L83.03-17.7 84.69-17.7 84.69-16.77 83.03-16.77ZM108.91 1.71L118.6 1.71 118.6-2.29 119.58-2.29 119.58 2.64 108.91 2.64 108.91 1.71ZM86.93-1.64L86.93-1.64Q88.84 0.42 91.23 1.43 93.62 2.44 96.94 2.44L96.94 2.44Q99.9 2.44 102.23 1.67 104.56 0.9 106.46-0.42L106.46-0.42 106.46 0.71Q104.32 2.1 102 2.73 99.68 3.37 96.97 3.37L96.97 3.37Q93.28 3.37 90.69 2.09 88.11 0.81 86.93-1.64ZM125.55 0L125.55-3.66 130.93-3.66 130.93-19.41 125.55-19.41 125.55-23.56 136.17-23.56 136.17-19.48Q136.93-20.46 137.99-21.34 139.06-22.22 140.4-22.88 141.74-23.54 143.33-23.91 144.91-24.29 146.72-24.29L146.72-24.29Q147.26-24.29 148.06-24.26 148.87-24.22 149.6-24.1L149.6-24.1 149.6-19.31Q148.75-19.51 147.92-19.58 147.09-19.65 146.31-19.65L146.31-19.65Q144.35-19.65 142.61-19.03 140.86-18.41 139.49-17.22 138.13-16.04 137.25-14.33 136.37-12.62 136.17-10.42L136.17-10.42 136.17-3.66 144.96-3.66 144.96 0 125.55 0ZM137.88-5.13L137.88-8.23Q137.88-10.52 138.47-12.33 139.06-14.14 140.14-15.38 141.23-16.63 142.79-17.29 144.35-17.94 146.31-17.94L146.31-17.94Q146.72-17.94 147.36-17.88 147.99-17.82 148.69-17.7 149.38-17.58 150.09-17.4 150.8-17.21 151.36-16.97L151.36-16.97 151.36-22.73 152.34-22.73 152.34-15.75Q151.65-16.04 150.86-16.27 150.07-16.5 149.25-16.67 148.43-16.85 147.67-16.93 146.92-17.02 146.31-17.02L146.31-17.02Q144.52-17.02 143.14-16.43 141.76-15.84 140.81-14.75 139.86-13.65 139.36-12.06 138.86-10.47 138.86-8.47L138.86-8.47 138.86-5.13 137.88-5.13ZM127.02-16.77L127.02-17.7 129.9-17.7 129.9-16.77 127.02-16.77ZM127.02 1.71L146.72 1.71 146.72-2.29 147.7-2.29 147.7 2.64 127.02 2.64 127.02 1.71ZM158.19 0L158.19-3.66 162.34-3.66 162.34-30.15 156.97-30.15 156.97-34.06 167.59-34.06 167.59-19.87Q169.37-21.7 171.93-22.75 174.48-23.8 177.48-23.8L177.48-23.8Q180.92-23.8 183.57-22.79 186.22-21.78 188.04-20.1 189.86-18.43 190.8-16.28 191.74-14.14 191.74-11.84L191.74-11.84Q191.74-9.06 190.75-6.75 189.76-4.44 187.92-2.78 186.07-1.12 183.47-0.2 180.87 0.73 177.65 0.73L177.65 0.73Q174.55 0.73 171.96-0.21 169.37-1.15 167.59-2.98L167.59-2.98 167.59 0 158.19 0ZM169.37-23.44L169.37-32.81 170.35-32.81 170.35-23.93 169.37-23.44ZM158.44-27.51L158.44-28.44 161.32-28.44 161.32-27.51 158.44-27.51ZM159.66 1.71L169.35 1.71 169.35 0.44Q170.23 0.9 171.25 1.27 172.28 1.64 173.37 1.89 174.45 2.15 175.55 2.29 176.65 2.44 177.65 2.44L177.65 2.44Q181.09 2.44 184 1.46 186.9 0.49 189.02-1.34 191.13-3.17 192.31-5.82 193.5-8.47 193.5-11.84L193.5-11.84Q193.5-13.53 193.12-14.97 192.74-16.41 192.12-17.61 191.49-18.82 190.69-19.8 189.88-20.78 189.03-21.56L189.03-21.56Q190.35-20.87 191.36-19.82 192.37-18.77 193.07-17.49 193.76-16.21 194.13-14.76 194.5-13.31 194.5-11.84L194.5-11.84Q194.5-8.35 193.28-5.53 192.06-2.71 189.85-0.73 187.64 1.25 184.52 2.31 181.41 3.37 177.63 3.37L177.63 3.37Q176.8 3.37 175.82 3.26 174.84 3.15 173.84 2.93 172.84 2.71 171.9 2.4 170.96 2.1 170.2 1.71L170.2 1.71 170.2 2.64 159.66 2.64 159.66 1.71ZM167.59-11.35L167.59-11.35Q167.59-9.11 168.47-7.53 169.35-5.96 170.78-4.96 172.21-3.96 174.04-3.49 175.87-3.03 177.77-3.03L177.77-3.03Q179.75-3.03 181.35-3.64 182.95-4.25 184.08-5.37 185.22-6.49 185.83-8.09 186.44-9.69 186.44-11.65L186.44-11.65Q186.44-13.5 185.72-15.05 185-16.6 183.75-17.7 182.51-18.8 180.81-19.41 179.12-20.02 177.16-20.02L177.16-20.02Q175.14-20.02 173.39-19.41 171.65-18.8 170.36-17.66 169.08-16.53 168.34-14.93 167.59-13.33 167.59-11.35ZM169.35-11.35L169.35-11.35Q169.35-12.82 169.9-14.09 170.45-15.36 171.46-16.3 172.48-17.24 173.92-17.77 175.36-18.31 177.16-18.31L177.16-18.31Q179.09-18.31 180.63-17.76 182.17-17.21 183.1-15.97L183.1-15.97Q181.48-16.75 180.12-17.07 178.75-17.38 177.16-17.38L177.16-17.38Q175.58-17.38 174.32-16.91 173.06-16.43 172.18-15.6 171.3-14.77 170.84-13.68 170.38-12.6 170.38-11.35L170.38-11.35Q170.38-9.38 171.5-7.76 172.62-6.15 175.14-4.98L175.14-4.98Q173.79-5.15 172.72-5.73 171.65-6.3 170.9-7.17 170.16-8.03 169.75-9.11 169.35-10.18 169.35-11.35ZM199.72-11.69L199.72-11.69Q199.72-13.96 200.67-16.21 201.62-18.46 203.49-20.25 205.36-22.05 208.12-23.17 210.88-24.29 214.47-24.29L214.47-24.29Q215.61-24.29 216.92-24.12 218.22-23.95 219.53-23.56 220.84-23.17 222.08-22.52 223.33-21.88 224.35-20.95L224.35-20.95 224.35-23.56 234.85-23.56 234.85-19.41 229.48-19.41 229.48-3.66 234.85-3.66 234.85 0 224.35 0 224.35-3.17Q223.4-2.22 222.19-1.49 220.98-0.76 219.63-0.27 218.27 0.22 216.82 0.48 215.37 0.73 213.93 0.73L213.93 0.73Q210.41 0.73 207.75-0.27 205.09-1.27 203.31-2.97 201.53-4.66 200.62-6.92 199.72-9.18 199.72-11.69ZM231.24-5.13L231.24-17.7 236.61-17.7 236.61-21.7 237.59-21.7 237.59-16.77 232.21-16.77 232.21-5.13 231.24-5.13ZM205.02-11.89L205.02-11.89Q205.02-9.86 205.74-8.23 206.46-6.59 207.7-5.44 208.95-4.3 210.66-3.66 212.37-3.03 214.34-3.03L214.34-3.03Q215.49-3.03 216.67-3.26 217.86-3.49 218.97-3.97 220.08-4.44 221.07-5.16 222.06-5.88 222.78-6.87 223.5-7.86 223.93-9.13 224.35-10.4 224.35-11.96L224.35-11.96Q224.35-13.7 223.55-15.25 222.74-16.8 221.39-17.97 220.03-19.14 218.22-19.82 216.42-20.51 214.42-20.51L214.42-20.51Q212.41-20.51 210.69-19.9 208.97-19.29 207.71-18.16 206.46-17.04 205.74-15.44 205.02-13.84 205.02-11.89ZM206.7-11.77L206.7-11.77Q206.7-13.31 207.28-14.59 207.85-15.87 208.87-16.81 209.9-17.75 211.32-18.27 212.73-18.8 214.42-18.8L214.42-18.8Q215.69-18.8 216.71-18.52 217.74-18.24 218.49-17.83 219.25-17.43 219.74-17 220.23-16.58 220.42-16.26L220.42-16.26Q219.1-16.99 217.71-17.43 216.32-17.87 214.42-17.87L214.42-17.87Q212.88-17.87 211.65-17.37 210.41-16.87 209.53-16.02 208.65-15.16 208.18-14.04 207.7-12.92 207.7-11.67L207.7-11.67Q207.7-10.5 207.97-9.47 208.24-8.45 208.84-7.58 209.44-6.71 210.4-5.99 211.36-5.27 212.73-4.74L212.73-4.74Q211.19-5 210.06-5.65 208.92-6.3 208.18-7.23 207.43-8.15 207.07-9.31 206.7-10.47 206.7-11.77ZM225.82 1.71L236.61 1.71 236.61-2.29 237.59-2.29 237.59 2.64 225.82 2.64 225.82 1.71ZM202.87-1.05L202.87-1.05Q203.87-0.24 205.14 0.4 206.41 1.05 207.85 1.5 209.29 1.95 210.84 2.2 212.39 2.44 213.95 2.44L213.95 2.44Q216.66 2.44 219.02 1.77 221.37 1.1 223.21-0.1L223.21-0.1 223.21 1.03Q221.37 2.12 218.97 2.75 216.56 3.37 213.98 3.37L213.98 3.37Q212.19 3.37 210.49 3.09 208.78 2.81 207.31 2.25 205.85 1.68 204.7 0.85 203.55 0.02 202.87-1.05ZM244.47 0L244.47-3.66 249.84-3.66 249.84-19.41 244.47-19.41 244.47-23.56 255.09-23.56 255.09-19.87Q255.84-20.8 256.91-21.61 257.97-22.41 259.29-23.01 260.61-23.61 262.14-23.95 263.68-24.29 265.37-24.29L265.37-24.29Q267.9-24.29 269.98-23.57 272.06-22.85 273.52-21.35 274.99-19.85 275.78-17.57 276.57-15.28 276.57-12.16L276.57-12.16 276.57-3.66 281.94-3.66 281.94 0 267.17 0 267.17-3.66 271.32-3.66 271.32-10.08Q271.32-12.06 271.14-13.61 270.96-15.16 270.61-16.04L270.61-16.04Q270.18-17.16 269.5-17.94 268.83-18.73 267.99-19.21 267.15-19.7 266.15-19.92 265.15-20.14 264.02-20.14L264.02-20.14Q262.83-20.14 261.55-19.7 260.26-19.26 259.05-18.47 257.85-17.68 256.81-16.6 255.77-15.53 255.09-14.28L255.09-14.28 255.09-3.66 259.24-3.66 259.24 0 244.47 0ZM278.33-5.13L278.33-11.99Q278.33-14.14 278-15.98 277.67-17.82 277.01-19.3 276.35-20.78 275.39-21.85 274.42-22.92 273.15-23.56L273.15-23.56Q274.81-23.14 275.99-22.16 277.16-21.17 277.89-19.65 278.62-18.14 278.96-16.16 279.31-14.18 279.31-11.82L279.31-11.82 279.31-5.13 278.33-5.13ZM256.85-5.13L256.85-13.67Q257.46-14.75 258.3-15.63 259.14-16.5 260.13-17.13 261.12-17.75 262.2-18.09 263.29-18.43 264.36-18.43L264.36-18.43Q266.05-18.43 267.1-17.8 268.15-17.16 268.64-16.19L268.64-16.19Q267.88-16.75 266.87-17.14 265.85-17.53 264.32-17.53L264.32-17.53Q263.36-17.53 262.39-17.18 261.41-16.82 260.53-16.24 259.65-15.65 258.94-14.89 258.24-14.14 257.82-13.35L257.82-13.35 257.82-5.13 256.85-5.13ZM245.93-16.77L245.93-17.7 248.81-17.7 248.81-16.77 245.93-16.77ZM268.64 1.71L283.7 1.71 283.7-2.29 284.68-2.29 284.68 2.64 268.64 2.64 268.64 1.71ZM245.93 1.71L261 1.71 261-2.29 261.97-2.29 261.97 2.64 245.93 2.64 245.93 1.71ZM288.78 0L288.78-3.66 294.15-3.66 294.15-30.4 288.78-30.4 288.78-34.06 299.4-34.06 299.4-11.55 311.92-19.41 307.97-19.41 307.97-23.56 323.98-23.56 323.98-19.41 317.9-19.41 308.84-13.84 319.25-3.66 324.54-3.66 324.54 0 309.38 0 309.38-3.66 312.58-3.66 304.74-11.33 299.4-8.03 299.4-3.66 303.55-3.66 303.55 0 288.78 0ZM301.11-14.16L301.11-32.81 302.08-32.81 302.08-14.75 301.11-14.16ZM290.24-27.76L290.24-28.69 293.12-28.69 293.12-27.76 290.24-27.76ZM311.6-13.55L319.2-17.92 325.74-17.92 325.74-22.19 326.72-22.19 326.72-16.99 319.39-16.99 313.17-13.38 321.59-5.13 320.22-5.13 311.6-13.55ZM301.11-5.13L301.11-7.06 305.43-9.74 306.09-9.08 302.03-6.57 302.03-5.13 301.11-5.13ZM310.85 1.71L326.3 1.71 326.3-2.29 327.28-2.29 327.28 2.64 310.85 2.64 310.85 1.71ZM290.24 1.71L305.3 1.71 305.3-2.29 306.28-2.29 306.28 2.64 290.24 2.64 290.24 1.71Z" fill="#ffffff" data-fill-palette-color="primary"></path></g></svg></g></svg></g><g transform="matrix(1,0,0,1,0,72.88369863768115)"><svg viewBox="0 0 232.209792 17.575007909176914" height="17.575007909176914" width="232.209792"><g transform="matrix(1,0,0,1,0,0)"><svg width="232.209792" viewBox="-0.73 -38.33 567.65 42.97" height="17.575007909176914" data-palette-color="#dcdcdc"><path d="M18.36-33.15L18.36-33.15Q18.36-32.23 17.94-31.49 17.53-30.76 16.85-30.25 16.16-29.74 15.33-29.39 14.5-29.05 13.72-28.91L13.72-28.91Q13.62-23.39 13.31-18.26 12.99-13.13 12.3-7.67L12.3-7.67 12.6-7.67Q13.38-7.67 14.14-7.5 14.89-7.32 15.5-6.91 16.11-6.49 16.48-5.88 16.85-5.27 16.85-4.39L16.85-4.39Q16.85-3.27 16.14-2.44 15.43-1.61 14.28-1.03 13.13-0.44 11.72-0.05 10.3 0.34 8.89 0.56 7.47 0.78 6.2 0.88 4.93 0.98 4.15 0.98L4.15 0.98Q3.56 0.98 2.71 0.93 1.86 0.88 1.1 0.63 0.34 0.39-0.2-0.1-0.73-0.59-0.73-1.42L-0.73-1.42Q-0.73-2.44-0.32-3.25 0.1-4.05 0.78-4.69 1.46-5.32 2.32-5.71 3.17-6.1 4.05-6.3L4.05-6.3Q4.39-8.98 4.69-11.65 4.98-14.31 5.08-17.04L5.08-17.04Q5.18-19.82 5.27-22.53 5.37-25.24 5.47-27.98L5.47-27.98Q5.13-27.93 4.83-27.91 4.54-27.88 4.3-27.88L4.3-27.88Q3.61-27.88 2.83-28.03 2.05-28.17 1.37-28.54 0.68-28.91 0.22-29.44-0.24-29.98-0.24-30.81L-0.24-30.81Q-0.24-32.47 1.15-33.54 2.54-34.62 4.47-35.21 6.4-35.79 8.4-36.01 10.4-36.23 11.62-36.23L11.62-36.23Q12.3-36.23 13.43-36.13 14.55-36.04 15.65-35.69 16.75-35.35 17.55-34.77 18.36-34.18 18.36-33.15ZM32.91 1.37L32.91 1.37Q32.08 1.37 31.59 0.61 31.1-0.15 30.86-1.12 30.61-2.1 30.54-3.1 30.47-4.1 30.47-4.64L30.47-4.64Q30.47-6.1 30.64-7.57 30.81-9.03 31.03-10.5 31.25-11.96 31.42-13.43 31.59-14.89 31.59-16.36L31.59-16.36Q31.59-16.94 31.54-17.63 31.49-18.31 31.32-18.92 31.15-19.53 30.76-19.92 30.37-20.31 29.73-20.31L29.73-20.31Q29.29-20.31 28.76-19.6 28.22-18.9 27.76-17.99 27.29-17.09 26.98-16.19 26.66-15.28 26.66-14.84L26.66-14.84Q26.66-13.77 26.68-12.67 26.71-11.57 26.71-10.45L26.71-10.45 26.71-7.62Q26.66-6.74 26.56-5.81 26.46-4.88 26.27-4L26.27-4Q26.12-3.13 25.83-2.32 25.53-1.51 25.07-0.9 24.61-0.29 23.97 0.1 23.34 0.49 22.46 0.49L22.46 0.49Q21.48 0.49 20.85-0.15 20.21-0.78 19.82-1.78 19.43-2.78 19.26-4.03 19.09-5.27 19.02-6.47 18.94-7.67 18.97-8.67 18.99-9.67 18.99-10.25L18.99-10.25 18.99-12.55Q18.99-14.4 18.92-16.21 18.85-18.02 18.85-19.82L18.85-19.82Q18.85-20.8 18.87-22.31 18.89-23.83 19.24-25.27 19.58-26.71 20.36-27.73 21.14-28.76 22.65-28.76L22.65-28.76Q23.34-28.76 23.87-28.32 24.41-27.88 24.83-27.25 25.24-26.61 25.51-25.88 25.78-25.15 25.93-24.61L25.93-24.61Q26.41-25.29 27.07-25.93 27.73-26.56 28.56-27.05 29.39-27.54 30.42-27.83 31.44-28.13 32.76-28.13L32.76-28.13Q35.25-28.13 36.64-26.93 38.03-25.73 38.69-23.95 39.35-22.17 39.5-20.12 39.65-18.07 39.65-16.41L39.65-16.41Q39.65-15.58 39.5-13.94 39.35-12.3 39.04-10.33 38.72-8.35 38.18-6.27 37.64-4.2 36.91-2.49 36.18-0.78 35.18 0.29 34.18 1.37 32.91 1.37ZM62.84-29.2L62.84-29.2Q62.84-28.27 62.67-27.42 62.5-26.56 62.06-25.93 61.62-25.29 60.88-24.93 60.15-24.56 59.08-24.56L59.08-24.56Q57.86-24.56 57.27-25.05 56.68-25.54 56.46-26.25 56.25-26.95 56.25-27.78 56.25-28.61 56.17-29.32 56.1-30.03 55.81-30.52 55.51-31.01 54.73-31.01L54.73-31.01Q54-31.01 53.54-29.88 53.07-28.76 52.78-27.29 52.49-25.83 52.39-24.44 52.29-23.05 52.29-22.56L52.29-22.56Q52.92-22.66 53.51-22.73 54.1-22.8 54.78-22.8L54.78-22.8Q55.46-22.8 56.2-22.66 56.93-22.51 57.56-22.19 58.2-21.88 58.59-21.31 58.98-20.75 58.98-19.92L58.98-19.92Q58.98-19.04 58.22-18.36 57.47-17.68 56.42-17.21 55.37-16.75 54.29-16.46 53.22-16.16 52.58-16.06L52.58-16.06Q52.73-12.7 52.73-9.28L52.73-9.28Q52.73-6.05 52.58-2.93L52.58-2.93Q52.49-1.42 51.53-0.44 50.58 0.54 49.07 0.54L49.07 0.54Q48.24 0.54 47.65 0.22 47.07-0.1 46.67-0.63 46.28-1.17 46.06-1.86 45.84-2.54 45.8-3.27L45.8-3.27Q45.55-6.2 45.41-9.16 45.26-12.11 45.31-15.09L45.31-15.09Q44.97-15.04 44.65-15.04 44.33-15.04 43.99-15.04L43.99-15.04Q43.4-15.04 42.57-15.19 41.74-15.33 40.99-15.7 40.23-16.06 39.69-16.6 39.16-17.14 39.16-17.97L39.16-17.97Q39.16-19.04 39.86-19.78 40.57-20.51 41.57-20.97 42.57-21.44 43.67-21.63 44.77-21.83 45.6-21.92L45.6-21.92 45.6-22.71Q45.6-25.1 46.04-27.83 46.48-30.57 47.6-32.91 48.73-35.25 50.68-36.79 52.63-38.33 55.66-38.33L55.66-38.33Q57.56-38.33 58.93-37.52 60.3-36.72 61.18-35.42 62.06-34.13 62.45-32.5 62.84-30.86 62.84-29.2ZM69.08-34.08L69.08-34.08Q69.08-33.4 68.72-32.86 68.35-32.32 67.77-31.91 67.18-31.49 66.5-31.27 65.81-31.05 65.23-31.05L65.23-31.05Q64.25-31.05 63.52-31.54 62.79-32.03 62.79-33.06L62.79-33.06Q62.79-33.79 63.15-34.35 63.52-34.91 64.06-35.28 64.59-35.64 65.28-35.84 65.96-36.04 66.59-36.04L66.59-36.04Q67.52-36.04 68.3-35.6 69.08-35.16 69.08-34.08ZM69.47-17.48L69.47-17.48Q69.47-16.8 69.47-16.04 69.47-15.28 69.43-14.6L69.43-14.6Q69.38-13.77 69.38-12.38 69.38-10.99 69.28-9.38 69.18-7.76 68.96-6.1 68.74-4.44 68.25-3.08 67.77-1.71 66.96-0.85 66.15 0 64.93 0.05L64.93 0.05Q64.01 0.1 63.37-0.68 62.74-1.46 62.32-2.71 61.91-3.96 61.71-5.49 61.52-7.03 61.42-8.47 61.32-9.91 61.32-11.13 61.32-12.35 61.32-12.94L61.32-12.94Q61.32-13.72 61.32-15.16 61.32-16.6 61.42-18.26 61.52-19.92 61.78-21.63 62.05-23.34 62.57-24.76 63.08-26.17 63.91-27.05 64.74-27.93 66.01-27.93L66.01-27.93Q67.33-27.93 68.01-26.61 68.69-25.29 69.04-23.54 69.38-21.78 69.43-20.04 69.47-18.31 69.47-17.48ZM86.81 1.37L86.81 1.37Q85.98 1.37 85.49 0.61 85-0.15 84.76-1.12 84.51-2.1 84.44-3.1 84.37-4.1 84.37-4.64L84.37-4.64Q84.37-6.1 84.54-7.57 84.71-9.03 84.93-10.5 85.15-11.96 85.32-13.43 85.49-14.89 85.49-16.36L85.49-16.36Q85.49-16.94 85.44-17.63 85.39-18.31 85.22-18.92 85.05-19.53 84.66-19.92 84.27-20.31 83.63-20.31L83.63-20.31Q83.19-20.31 82.66-19.6 82.12-18.9 81.66-17.99 81.19-17.09 80.87-16.19 80.56-15.28 80.56-14.84L80.56-14.84Q80.56-13.77 80.58-12.67 80.61-11.57 80.61-10.45L80.61-10.45 80.61-7.62Q80.56-6.74 80.46-5.81 80.36-4.88 80.17-4L80.17-4Q80.02-3.13 79.73-2.32 79.43-1.51 78.97-0.9 78.51-0.29 77.87 0.1 77.24 0.49 76.36 0.49L76.36 0.49Q75.38 0.49 74.75-0.15 74.11-0.78 73.72-1.78 73.33-2.78 73.16-4.03 72.99-5.27 72.91-6.47 72.84-7.67 72.87-8.67 72.89-9.67 72.89-10.25L72.89-10.25 72.89-12.55Q72.89-14.4 72.82-16.21 72.74-18.02 72.74-19.82L72.74-19.82Q72.74-20.8 72.77-22.31 72.79-23.83 73.13-25.27 73.48-26.71 74.26-27.73 75.04-28.76 76.55-28.76L76.55-28.76Q77.24-28.76 77.77-28.32 78.31-27.88 78.73-27.25 79.14-26.61 79.41-25.88 79.68-25.15 79.82-24.61L79.82-24.61Q80.31-25.29 80.97-25.93 81.63-26.56 82.46-27.05 83.29-27.54 84.32-27.83 85.34-28.13 86.66-28.13L86.66-28.13Q89.15-28.13 90.54-26.93 91.93-25.73 92.59-23.95 93.25-22.17 93.4-20.12 93.54-18.07 93.54-16.41L93.54-16.41Q93.54-15.58 93.4-13.94 93.25-12.3 92.93-10.33 92.62-8.35 92.08-6.27 91.54-4.2 90.81-2.49 90.08-0.78 89.08 0.29 88.08 1.37 86.81 1.37ZM104.33-34.08L104.33-34.08Q104.33-33.4 103.97-32.86 103.6-32.32 103.01-31.91 102.43-31.49 101.75-31.27 101.06-31.05 100.48-31.05L100.48-31.05Q99.5-31.05 98.77-31.54 98.03-32.03 98.03-33.06L98.03-33.06Q98.03-33.79 98.4-34.35 98.77-34.91 99.3-35.28 99.84-35.64 100.52-35.84 101.21-36.04 101.84-36.04L101.84-36.04Q102.77-36.04 103.55-35.6 104.33-35.16 104.33-34.08ZM104.72-17.48L104.72-17.48Q104.72-16.8 104.72-16.04 104.72-15.28 104.68-14.6L104.68-14.6Q104.63-13.77 104.63-12.38 104.63-10.99 104.53-9.38 104.43-7.76 104.21-6.1 103.99-4.44 103.5-3.08 103.01-1.71 102.21-0.85 101.4 0 100.18 0.05L100.18 0.05Q99.26 0.1 98.62-0.68 97.99-1.46 97.57-2.71 97.16-3.96 96.96-5.49 96.76-7.03 96.67-8.47 96.57-9.91 96.57-11.13 96.57-12.35 96.57-12.94L96.57-12.94Q96.57-13.72 96.57-15.16 96.57-16.6 96.67-18.26 96.76-19.92 97.03-21.63 97.3-23.34 97.81-24.76 98.33-26.17 99.16-27.05 99.99-27.93 101.26-27.93L101.26-27.93Q102.58-27.93 103.26-26.61 103.94-25.29 104.28-23.54 104.63-21.78 104.68-20.04 104.72-18.31 104.72-17.48ZM119.57 1.76L119.57 1.76Q116.1 1.76 114.17 0.85 112.24-0.05 111.29-1.71 110.34-3.37 110.14-5.71 109.95-8.06 109.95-10.94L109.95-10.94Q109.95-13.23 110.09-15.55 110.24-17.87 110.53-20.51L110.53-20.51Q109.85-20.51 109.46-20.48 109.07-20.46 108.82-20.46L108.82-20.46Q107.26-20.46 106.11-21.14 104.97-21.83 104.97-23.24L104.97-23.24Q104.97-24.12 105.62-24.8 106.28-25.49 107.31-25.98 108.33-26.46 109.53-26.76 110.73-27.05 111.8-27.15L111.8-27.15Q111.8-28.52 112-30.18 112.19-31.84 112.7-33.28 113.22-34.72 114.1-35.69 114.98-36.67 116.34-36.67L116.34-36.67Q117.12-36.67 117.73-36.21 118.34-35.74 118.74-35.03 119.13-34.33 119.32-33.45 119.52-32.57 119.52-31.74L119.52-31.74Q119.52-30.76 119.37-29.74 119.22-28.71 118.83-27.2L118.83-27.2Q119.66-27.29 119.96-27.32 120.25-27.34 120.49-27.34L120.49-27.34Q121.32-27.34 122.23-27.2 123.13-27.05 123.89-26.71 124.64-26.37 125.13-25.81 125.62-25.24 125.62-24.46L125.62-24.46Q125.62-23.58 124.91-22.9 124.2-22.22 123.13-21.73 122.06-21.24 120.83-20.97 119.61-20.7 118.54-20.61L118.54-20.61Q118.25-18.6 118.12-16.92 118-15.23 117.86-13.53L117.86-13.53Q117.76-12.7 117.69-11.84 117.61-10.99 117.61-10.11L117.61-10.11Q117.61-9.47 117.66-8.62 117.71-7.76 118-6.98 118.3-6.2 118.93-5.64 119.57-5.08 120.69-5.08L120.69-5.08Q121.37-5.08 122.1-5.2 122.84-5.32 123.57-5.32L123.57-5.32Q124.84-5.32 125.4-4.44 125.96-3.56 125.96-2.2L125.96-2.2Q125.96-1.17 125.35-0.42 124.74 0.34 123.81 0.81 122.89 1.27 121.74 1.51 120.59 1.76 119.57 1.76ZM147.39-8.69L147.39-8.69Q147.39-7.03 146.34-5.44 145.3-3.86 143.71-2.61 142.12-1.37 140.31-0.61 138.51 0.15 136.99 0.15L136.99 0.15Q134.41 0.15 132.38-1.15 130.35-2.44 128.99-4.44 127.62-6.45 126.91-8.86 126.2-11.28 126.2-13.57L126.2-13.57Q126.2-16.02 126.89-18.8 127.57-21.58 128.96-23.93 130.35-26.27 132.48-27.83 134.6-29.39 137.53-29.39L137.53-29.39Q139.19-29.39 140.71-28.83 142.22-28.27 143.34-27.25 144.46-26.22 145.15-24.8 145.83-23.39 145.83-21.63L145.83-21.63Q145.83-19.34 144.86-17.33 143.88-15.33 142.27-13.87 140.66-12.4 138.56-11.5 136.46-10.6 134.26-10.5L134.26-10.5Q134.46-9.08 135.41-8.45 136.36-7.81 137.68-7.81L137.68-7.81Q138.65-7.81 139.58-8.3 140.51-8.79 141.39-9.4 142.27-10.01 143.12-10.5 143.98-10.99 144.86-10.99L144.86-10.99Q145.83-10.99 146.61-10.35 147.39-9.72 147.39-8.69ZM139.48-20.65L139.48-20.65Q139.48-21.29 139.14-21.97 138.8-22.66 138.07-22.66L138.07-22.66Q136.99-22.66 136.26-22.09 135.53-21.53 135.04-20.68 134.55-19.82 134.28-18.85 134.02-17.87 133.97-17.04L133.97-17.04Q134.65-17.19 135.6-17.43 136.55-17.68 137.41-18.09 138.26-18.51 138.87-19.14 139.48-19.78 139.48-20.65ZM177.08-34.28L177.08-34.28Q177.08-33.15 176.37-32.32 175.66-31.49 174.68-30.96L174.68-30.96Q173.81-30.42 172.88-29.81 171.95-29.2 171.17-28.44 170.39-27.69 169.9-26.76 169.41-25.83 169.41-24.66L169.41-24.66Q169.41-23.63 169.9-22.8 170.39-21.97 171.1-21.17 171.8-20.36 172.66-19.51 173.51-18.65 174.22-17.6 174.93-16.55 175.42-15.23 175.91-13.92 175.91-12.16L175.91-12.16Q175.91-10.94 175.39-9.4 174.88-7.86 174-6.3 173.12-4.74 171.93-3.27 170.73-1.81 169.39-0.66 168.04 0.49 166.58 1.2 165.11 1.9 163.75 1.9L163.75 1.9Q162.23 1.9 161.06 1.07 159.89 0.24 159.89-1.42L159.89-1.42Q159.89-2.54 160.43-3.49 160.96-4.44 161.75-5.32 162.53-6.2 163.48-7.03 164.43-7.86 165.21-8.69 165.99-9.52 166.53-10.42 167.07-11.33 167.07-12.35L167.07-12.35Q167.07-13.77 166.07-15.26 165.07-16.75 163.84-18.33 162.62-19.92 161.62-21.58 160.62-23.24 160.62-24.95L160.62-24.95Q160.62-27.05 161.75-29.37 162.87-31.69 164.63-33.62 166.38-35.55 168.58-36.82 170.78-38.09 172.93-38.09L172.93-38.09Q174.64-38.09 175.86-37.06 177.08-36.04 177.08-34.28ZM190.16 1.76L190.16 1.76Q186.69 1.76 184.77 0.85 182.84-0.05 181.88-1.71 180.93-3.37 180.74-5.71 180.54-8.06 180.54-10.94L180.54-10.94Q180.54-13.23 180.69-15.55 180.83-17.87 181.13-20.51L181.13-20.51Q180.44-20.51 180.05-20.48 179.66-20.46 179.42-20.46L179.42-20.46Q177.86-20.46 176.71-21.14 175.56-21.83 175.56-23.24L175.56-23.24Q175.56-24.12 176.22-24.8 176.88-25.49 177.9-25.98 178.93-26.46 180.13-26.76 181.32-27.05 182.4-27.15L182.4-27.15Q182.4-28.52 182.59-30.18 182.79-31.84 183.3-33.28 183.81-34.72 184.69-35.69 185.57-36.67 186.94-36.67L186.94-36.67Q187.72-36.67 188.33-36.21 188.94-35.74 189.33-35.03 189.72-34.33 189.92-33.45 190.11-32.57 190.11-31.74L190.11-31.74Q190.11-30.76 189.97-29.74 189.82-28.71 189.43-27.2L189.43-27.2Q190.26-27.29 190.55-27.32 190.84-27.34 191.09-27.34L191.09-27.34Q191.92-27.34 192.82-27.2 193.73-27.05 194.48-26.71 195.24-26.37 195.73-25.81 196.22-25.24 196.22-24.46L196.22-24.46Q196.22-23.58 195.51-22.9 194.8-22.22 193.73-21.73 192.65-21.24 191.43-20.97 190.21-20.7 189.14-20.61L189.14-20.61Q188.84-18.6 188.72-16.92 188.6-15.23 188.45-13.53L188.45-13.53Q188.35-12.7 188.28-11.84 188.21-10.99 188.21-10.11L188.21-10.11Q188.21-9.47 188.26-8.62 188.31-7.76 188.6-6.98 188.89-6.2 189.53-5.64 190.16-5.08 191.28-5.08L191.28-5.08Q191.97-5.08 192.7-5.2 193.43-5.32 194.16-5.32L194.16-5.32Q195.43-5.32 196-4.44 196.56-3.56 196.56-2.2L196.56-2.2Q196.56-1.17 195.95-0.42 195.34 0.34 194.41 0.81 193.48 1.27 192.33 1.51 191.19 1.76 190.16 1.76ZM206.81 1.42L206.81 1.42Q204.32 1.42 202.46 0.1 200.61-1.22 199.34-3.27 198.07-5.32 197.43-7.84 196.8-10.35 196.8-12.79L196.8-12.79Q196.8-15.38 197.43-18.14 198.07-20.9 199.39-23.17 200.7-25.44 202.76-26.88 204.81-28.32 207.64-28.32L207.64-28.32Q210.37-28.32 212.3-26.83 214.23-25.34 215.4-23.12 216.57-20.9 217.06-18.26 217.55-15.63 217.4-13.28L217.4-13.28Q217.26-10.69 216.6-8.06 215.94-5.42 214.67-3.32 213.4-1.22 211.45 0.1 209.49 1.42 206.81 1.42ZM207.3-20.65L207.3-20.65Q206.56-20.65 206-19.87 205.44-19.09 205.08-17.97 204.71-16.85 204.51-15.6 204.32-14.36 204.32-13.43L204.32-13.43Q204.32-12.26 204.54-10.89 204.76-9.52 205.15-8.37 205.54-7.23 206.1-6.47 206.66-5.71 207.39-5.71L207.39-5.71Q208.18-5.71 208.74-6.45 209.3-7.18 209.64-8.3 209.98-9.42 210.13-10.77 210.28-12.11 210.28-13.28L210.28-13.28Q210.28-14.36 210.08-15.65 209.88-16.94 209.52-18.07 209.15-19.19 208.59-19.92 208.03-20.65 207.3-20.65ZM236.84-18.26L236.84-18.26Q236.15-18.21 235.66-18.38 235.18-18.55 234.69-18.75L234.69-18.75Q234.25-18.95 233.81-19.12 233.37-19.29 232.83-19.24L232.83-19.24Q231.85-19.19 231.1-18.7 230.34-18.21 229.73-17.48 229.12-16.75 228.68-15.84 228.24-14.94 228-14.06L228-14.06Q227.85-13.48 227.78-12.28 227.7-11.08 227.7-9.72L227.7-9.72Q227.66-8.3 227.66-7.03 227.66-5.76 227.56-5.03L227.56-5.03Q227.51-4.25 227.31-3.2 227.12-2.15 226.7-1.22 226.29-0.29 225.6 0.34 224.92 0.98 223.85 0.98L223.85 0.98Q223.02 0.98 222.41 0.49 221.8 0 221.38-0.81 220.97-1.61 220.7-2.69 220.43-3.76 220.28-4.88L220.28-4.88Q220.14-6.05 220.06-7.23 219.99-8.4 219.97-9.45 219.94-10.5 219.97-11.38 219.99-12.26 219.99-12.79L219.99-12.79Q219.94-14.5 219.82-16.24 219.7-17.97 219.7-19.68L219.7-19.68Q219.7-20.75 219.79-22.07 219.89-23.39 220.33-24.54 220.77-25.68 221.63-26.46 222.48-27.25 223.99-27.25L223.99-27.25Q224.82-27.25 225.41-26.71 226-26.17 226.36-25.39 226.73-24.61 226.92-23.73 227.12-22.85 227.17-22.12L227.17-22.12Q228.34-24.02 229.8-25.22 231.27-26.42 233.61-26.51L233.61-26.51Q234.78-26.56 235.93-26.29 237.08-26.03 238.03-25.42 238.98-24.8 239.59-23.83 240.2-22.85 240.25-21.53L240.25-21.53Q240.35-19.97 239.33-19.14 238.3-18.31 236.84-18.26ZM249.04-34.08L249.04-34.08Q249.04-33.4 248.67-32.86 248.31-32.32 247.72-31.91 247.14-31.49 246.45-31.27 245.77-31.05 245.18-31.05L245.18-31.05Q244.21-31.05 243.47-31.54 242.74-32.03 242.74-33.06L242.74-33.06Q242.74-33.79 243.11-34.35 243.47-34.91 244.01-35.28 244.55-35.64 245.23-35.84 245.91-36.04 246.55-36.04L246.55-36.04Q247.48-36.04 248.26-35.6 249.04-35.16 249.04-34.08ZM249.43-17.48L249.43-17.48Q249.43-16.8 249.43-16.04 249.43-15.28 249.38-14.6L249.38-14.6Q249.33-13.77 249.33-12.38 249.33-10.99 249.24-9.38 249.14-7.76 248.92-6.1 248.7-4.44 248.21-3.08 247.72-1.71 246.92-0.85 246.11 0 244.89 0.05L244.89 0.05Q243.96 0.1 243.33-0.68 242.69-1.46 242.28-2.71 241.86-3.96 241.67-5.49 241.47-7.03 241.37-8.47 241.28-9.91 241.28-11.13 241.28-12.35 241.28-12.94L241.28-12.94Q241.28-13.72 241.28-15.16 241.28-16.6 241.37-18.26 241.47-19.92 241.74-21.63 242.01-23.34 242.52-24.76 243.03-26.17 243.86-27.05 244.69-27.93 245.96-27.93L245.96-27.93Q247.28-27.93 247.97-26.61 248.65-25.29 248.99-23.54 249.33-21.78 249.38-20.04 249.43-18.31 249.43-17.48ZM273.35-8.69L273.35-8.69Q273.35-7.03 272.3-5.44 271.25-3.86 269.67-2.61 268.08-1.37 266.27-0.61 264.47 0.15 262.95 0.15L262.95 0.15Q260.37 0.15 258.34-1.15 256.31-2.44 254.95-4.44 253.58-6.45 252.87-8.86 252.16-11.28 252.16-13.57L252.16-13.57Q252.16-16.02 252.85-18.8 253.53-21.58 254.92-23.93 256.31-26.27 258.44-27.83 260.56-29.39 263.49-29.39L263.49-29.39Q265.15-29.39 266.66-28.83 268.18-28.27 269.3-27.25 270.42-26.22 271.11-24.8 271.79-23.39 271.79-21.63L271.79-21.63Q271.79-19.34 270.81-17.33 269.84-15.33 268.23-13.87 266.62-12.4 264.52-11.5 262.42-10.6 260.22-10.5L260.22-10.5Q260.41-9.08 261.37-8.45 262.32-7.81 263.64-7.81L263.64-7.81Q264.61-7.81 265.54-8.3 266.47-8.79 267.35-9.4 268.23-10.01 269.08-10.5 269.94-10.99 270.81-10.99L270.81-10.99Q271.79-10.99 272.57-10.35 273.35-9.72 273.35-8.69ZM265.44-20.65L265.44-20.65Q265.44-21.29 265.1-21.97 264.76-22.66 264.03-22.66L264.03-22.66Q262.95-22.66 262.22-22.09 261.49-21.53 261-20.68 260.51-19.82 260.24-18.85 259.97-17.87 259.93-17.04L259.93-17.04Q260.61-17.19 261.56-17.43 262.51-17.68 263.37-18.09 264.22-18.51 264.83-19.14 265.44-19.78 265.44-20.65ZM289.61-26.86L289.61-26.86Q289.61-25.44 288.66-24.76 287.71-24.07 286.53-23.46 285.36-22.85 284.41-22.02 283.46-21.19 283.46-19.53L283.46-19.53Q283.46-18.65 283.87-18.02 284.29-17.38 284.9-16.87 285.51-16.36 286.24-15.82 286.97-15.28 287.58-14.6 288.19-13.92 288.61-12.94 289.03-11.96 289.03-10.55L289.03-10.55Q289.03-8.5 287.98-6.52 286.93-4.54 285.29-3 283.65-1.46 281.6-0.54 279.55 0.39 277.55 0.39L277.55 0.39Q276.72 0.39 275.89 0.27 275.06 0.15 274.4-0.2 273.74-0.54 273.3-1.15 272.86-1.76 272.86-2.73L272.86-2.73Q272.86-4.1 273.4-4.86 273.94-5.62 274.77-6.05 275.6-6.49 276.55-6.74 277.5-6.98 278.33-7.35 279.16-7.71 279.7-8.3 280.24-8.89 280.24-9.96L280.24-9.96Q280.24-10.99 279.43-12.08 278.62-13.18 277.65-14.43 276.67-15.67 275.87-17.09 275.06-18.51 275.06-20.21L275.06-20.21Q275.06-22.31 275.91-24.1 276.77-25.88 278.21-27.2 279.65-28.52 281.51-29.27 283.36-30.03 285.41-30.03L285.41-30.03Q286.19-30.03 286.95-29.88 287.71-29.74 288.29-29.37 288.88-29 289.24-28.39 289.61-27.78 289.61-26.86ZM298.59-2.59L298.59-2.59Q298.59-1.81 298.18-0.59 297.76 0.63 297.15 1.81 296.54 2.98 295.76 3.81 294.98 4.64 294.25 4.64L294.25 4.64Q293.27 4.64 293.27 3.66L293.27 3.66Q293.27 3.08 293.51 2.54 293.76 2 294.05 1.49 294.34 0.98 294.59 0.46 294.83-0.05 294.83-0.54L294.83-0.54Q294.1-0.05 293.27-0.05L293.27-0.05Q292.15-0.05 291.37-0.93 290.59-1.81 290.59-2.88L290.59-2.88Q290.59-4.44 291.61-5.4 292.64-6.35 294.2-6.35L294.2-6.35Q295.96-6.35 297.27-5.42 298.59-4.49 298.59-2.59ZM323.49 1.61L323.49 1.61Q320.51 1.61 318.31 0.12 316.12-1.37 314.68-3.88 313.24-6.4 312.53-9.72 311.82-13.04 311.82-16.7L311.82-16.7Q311.82-20.12 312.58-23.63 313.33-27.15 314.9-29.98 316.46-32.81 318.85-34.62 321.24-36.43 324.56-36.43L324.56-36.43Q327.79-36.43 329.96-34.69 332.13-32.96 333.43-30.2 334.72-27.44 335.28-24.02 335.84-20.61 335.84-17.19L335.84-17.19Q335.84-13.38 335.09-9.99 334.33-6.59 332.79-4 331.25-1.42 328.93 0.1 326.62 1.61 323.49 1.61ZM324.08-25.63L324.08-25.63Q323.15-25.63 322.49-24.9 321.83-24.17 321.39-22.97 320.95-21.78 320.76-20.29 320.56-18.8 320.56-17.29L320.56-17.29Q320.56-15.58 320.78-13.87 321-12.16 321.44-10.79 321.88-9.42 322.54-8.59 323.2-7.76 324.12-7.76L324.12-7.76Q325.2-7.76 325.83-8.84 326.47-9.91 326.83-11.43 327.2-12.94 327.32-14.55 327.45-16.16 327.45-17.24L327.45-17.24Q327.45-18.55 327.27-20.02 327.1-21.48 326.71-22.73 326.32-23.97 325.69-24.8 325.05-25.63 324.08-25.63ZM352.44 1.37L352.44 1.37Q351.61 1.37 351.12 0.61 350.64-0.15 350.39-1.12 350.15-2.1 350.07-3.1 350-4.1 350-4.64L350-4.64Q350-6.1 350.17-7.57 350.34-9.03 350.56-10.5 350.78-11.96 350.95-13.43 351.12-14.89 351.12-16.36L351.12-16.36Q351.12-16.94 351.08-17.63 351.03-18.31 350.86-18.92 350.68-19.53 350.29-19.92 349.9-20.31 349.27-20.31L349.27-20.31Q348.83-20.31 348.29-19.6 347.76-18.9 347.29-17.99 346.83-17.09 346.51-16.19 346.19-15.28 346.19-14.84L346.19-14.84Q346.19-13.77 346.22-12.67 346.24-11.57 346.24-10.45L346.24-10.45 346.24-7.62Q346.19-6.74 346.1-5.81 346-4.88 345.8-4L345.8-4Q345.66-3.13 345.36-2.32 345.07-1.51 344.61-0.9 344.14-0.29 343.51 0.1 342.87 0.49 341.99 0.49L341.99 0.49Q341.02 0.49 340.38-0.15 339.75-0.78 339.36-1.78 338.97-2.78 338.8-4.03 338.62-5.27 338.55-6.47 338.48-7.67 338.5-8.67 338.53-9.67 338.53-10.25L338.53-10.25 338.53-12.55Q338.53-14.4 338.45-16.21 338.38-18.02 338.38-19.82L338.38-19.82Q338.38-20.8 338.4-22.31 338.43-23.83 338.77-25.27 339.11-26.71 339.89-27.73 340.68-28.76 342.19-28.76L342.19-28.76Q342.87-28.76 343.41-28.32 343.95-27.88 344.36-27.25 344.78-26.61 345.05-25.88 345.31-25.15 345.46-24.61L345.46-24.61Q345.95-25.29 346.61-25.93 347.27-26.56 348.1-27.05 348.93-27.54 349.95-27.83 350.98-28.13 352.3-28.13L352.3-28.13Q354.79-28.13 356.18-26.93 357.57-25.73 358.23-23.95 358.89-22.17 359.03-20.12 359.18-18.07 359.18-16.41L359.18-16.41Q359.18-15.58 359.03-13.94 358.89-12.3 358.57-10.33 358.25-8.35 357.72-6.27 357.18-4.2 356.45-2.49 355.71-0.78 354.71 0.29 353.71 1.37 352.44 1.37ZM382.37-8.69L382.37-8.69Q382.37-7.03 381.32-5.44 380.27-3.86 378.69-2.61 377.1-1.37 375.29-0.61 373.49 0.15 371.97 0.15L371.97 0.15Q369.38 0.15 367.36-1.15 365.33-2.44 363.96-4.44 362.6-6.45 361.89-8.86 361.18-11.28 361.18-13.57L361.18-13.57Q361.18-16.02 361.86-18.8 362.55-21.58 363.94-23.93 365.33-26.27 367.45-27.83 369.58-29.39 372.51-29.39L372.51-29.39Q374.17-29.39 375.68-28.83 377.2-28.27 378.32-27.25 379.44-26.22 380.13-24.8 380.81-23.39 380.81-21.63L380.81-21.63Q380.81-19.34 379.83-17.33 378.86-15.33 377.24-13.87 375.63-12.4 373.53-11.5 371.43-10.6 369.24-10.5L369.24-10.5Q369.43-9.08 370.38-8.45 371.34-7.81 372.66-7.81L372.66-7.81Q373.63-7.81 374.56-8.3 375.49-8.79 376.37-9.4 377.24-10.01 378.1-10.5 378.95-10.99 379.83-10.99L379.83-10.99Q380.81-10.99 381.59-10.35 382.37-9.72 382.37-8.69ZM374.46-20.65L374.46-20.65Q374.46-21.29 374.12-21.97 373.78-22.66 373.05-22.66L373.05-22.66Q371.97-22.66 371.24-22.09 370.51-21.53 370.02-20.68 369.53-19.82 369.26-18.85 368.99-17.87 368.94-17.04L368.94-17.04Q369.63-17.19 370.58-17.43 371.53-17.68 372.39-18.09 373.24-18.51 373.85-19.14 374.46-19.78 374.46-20.65ZM418.74-26.17L418.74-26.17Q418.74-23.54 417.6-21 416.45-18.46 414.54-16.43 412.64-14.4 410.2-13.11 407.76-11.82 405.17-11.67L405.17-11.67Q405.12-10.79 405.1-9.45 405.07-8.11 404.93-6.64 404.78-5.18 404.51-3.71 404.24-2.25 403.73-1.07 403.22 0.1 402.41 0.83 401.61 1.56 400.43 1.56L400.43 1.56Q399.07 1.56 398.26 0.66 397.45-0.24 397.04-1.51 396.62-2.78 396.48-4.17 396.33-5.57 396.28-6.54L396.28-6.54Q396.19-7.96 396.16-9.33 396.14-10.69 396.14-12.11L396.14-12.11Q396.14-12.74 396.14-14.48 396.14-16.21 396.16-18.43 396.19-20.65 396.23-23.07 396.28-25.49 396.38-27.56 396.48-29.64 396.6-31.1 396.72-32.57 396.92-32.81L396.92-32.81Q396.97-32.86 397.21-33.03 397.45-33.2 397.75-33.37 398.04-33.54 398.28-33.69 398.53-33.84 398.63-33.89L398.63-33.89Q400.87-35.16 403.56-36.08 406.24-37.01 408.88-37.01L408.88-37.01Q411.13-37.01 412.96-36.11 414.79-35.21 416.08-33.72 417.38-32.23 418.06-30.25 418.74-28.27 418.74-26.17ZM410.3-25.05L410.3-25.05Q410.3-26.03 409.83-26.76 409.37-27.49 408.29-27.49L408.29-27.49Q407.37-27.49 406.44-27.12 405.51-26.76 404.73-26.37L404.73-26.37Q404.88-24.66 405-23.05 405.12-21.44 405.02-19.73L405.02-19.73Q405.8-20.12 406.73-20.63 407.66-21.14 408.44-21.78 409.22-22.41 409.76-23.22 410.3-24.02 410.3-25.05ZM429.04-29.59L429.04-29.59Q429.04-26.95 428.82-24.29 428.6-21.63 428.6-18.95L428.6-18.95Q428.6-15.48 428.82-12.01 429.04-8.54 429.04-5.03L429.04-5.03Q429.04-4.15 428.95-3.05 428.85-1.95 428.48-1.03 428.12-0.1 427.38 0.54 426.65 1.17 425.43 1.17L425.43 1.17Q424.26 1.17 423.4 0.02 422.55-1.12 421.99-2.91 421.43-4.69 421.06-6.88 420.69-9.08 420.52-11.16 420.35-13.23 420.28-14.97 420.21-16.7 420.21-17.53L420.21-17.53Q420.21-18.46 420.28-20.21 420.35-21.97 420.6-24.02 420.84-26.07 421.26-28.2 421.67-30.32 422.35-32.06 423.04-33.79 423.99-34.89 424.94-35.99 426.26-35.99L426.26-35.99Q427.34-35.99 427.9-35.28 428.46-34.57 428.7-33.57 428.95-32.57 429-31.47 429.04-30.37 429.04-29.59ZM453.5-6.88L453.5-6.88Q453.5-6.01 453.43-4.59 453.36-3.17 453.02-1.83 452.67-0.49 451.94 0.49 451.21 1.46 449.89 1.46L449.89 1.46Q448.08 1.46 447.11 0.29 446.13-0.88 446.18-2.64L446.18-2.64Q444.62-1.27 442.64-0.49 440.66 0.29 438.61 0.29L438.61 0.29Q437.2 0.29 435.93-0.39 434.66-1.07 433.68-2.15 432.7-3.22 432.12-4.57 431.53-5.91 431.53-7.23L431.53-7.23Q431.53-9.57 432.97-11.33 434.41-13.09 436.51-14.33 438.61-15.58 440.98-16.31 443.35-17.04 445.2-17.29L445.2-17.29Q445.2-17.53 445.23-17.72 445.25-17.92 445.25-18.16L445.25-18.16Q445.25-19.68 444.42-20.61 443.59-21.53 442.08-21.53L442.08-21.53Q440.86-21.53 439.98-21.12 439.1-20.7 438.32-20.19 437.54-19.68 436.76-19.26 435.98-18.85 435-18.85L435-18.85Q433.92-18.85 433.17-19.53 432.41-20.21 432.41-21.29L432.41-21.29Q432.41-22.9 433.36-24.22 434.32-25.54 435.76-26.44 437.2-27.34 438.88-27.86 440.57-28.37 441.98-28.37L441.98-28.37Q443.3-28.37 444.62-28.05 445.94-27.73 447.11-27.08 448.28-26.42 449.23-25.46 450.18-24.51 450.77-23.24L450.77-23.24Q451.65-21.44 452.19-19.41 452.72-17.38 453.02-15.26 453.31-13.13 453.41-11.01 453.5-8.89 453.5-6.88ZM445.69-8.45L445.69-8.45 445.55-11.77Q445.45-11.77 445.35-11.79 445.25-11.82 445.15-11.82L445.15-11.82Q444.52-11.82 443.57-11.5 442.62-11.18 441.74-10.62 440.86-10.06 440.25-9.38 439.64-8.69 439.64-7.96L439.64-7.96Q439.64-7.28 440.13-7.03 440.61-6.79 441.25-6.79L441.25-6.79Q442.32-6.79 443.54-7.35 444.76-7.91 445.69-8.45ZM467.81 1.76L467.81 1.76Q464.34 1.76 462.41 0.85 460.48-0.05 459.53-1.71 458.58-3.37 458.38-5.71 458.19-8.06 458.19-10.94L458.19-10.94Q458.19-13.23 458.34-15.55 458.48-17.87 458.78-20.51L458.78-20.51Q458.09-20.51 457.7-20.48 457.31-20.46 457.07-20.46L457.07-20.46Q455.5-20.46 454.36-21.14 453.21-21.83 453.21-23.24L453.21-23.24Q453.21-24.12 453.87-24.8 454.53-25.49 455.55-25.98 456.58-26.46 457.77-26.76 458.97-27.05 460.04-27.15L460.04-27.15Q460.04-28.52 460.24-30.18 460.44-31.84 460.95-33.28 461.46-34.72 462.34-35.69 463.22-36.67 464.59-36.67L464.59-36.67Q465.37-36.67 465.98-36.21 466.59-35.74 466.98-35.03 467.37-34.33 467.56-33.45 467.76-32.57 467.76-31.74L467.76-31.74Q467.76-30.76 467.61-29.74 467.47-28.71 467.08-27.2L467.08-27.2Q467.91-27.29 468.2-27.32 468.49-27.34 468.74-27.34L468.74-27.34Q469.57-27.34 470.47-27.2 471.37-27.05 472.13-26.71 472.89-26.37 473.38-25.81 473.86-25.24 473.86-24.46L473.86-24.46Q473.86-23.58 473.16-22.9 472.45-22.22 471.37-21.73 470.3-21.24 469.08-20.97 467.86-20.7 466.78-20.61L466.78-20.61Q466.49-18.6 466.37-16.92 466.25-15.23 466.1-13.53L466.1-13.53Q466-12.7 465.93-11.84 465.86-10.99 465.86-10.11L465.86-10.11Q465.86-9.47 465.9-8.62 465.95-7.76 466.25-6.98 466.54-6.2 467.17-5.64 467.81-5.08 468.93-5.08L468.93-5.08Q469.62-5.08 470.35-5.2 471.08-5.32 471.81-5.32L471.81-5.32Q473.08-5.32 473.64-4.44 474.21-3.56 474.21-2.2L474.21-2.2Q474.21-1.17 473.59-0.42 472.98 0.34 472.06 0.81 471.13 1.27 469.98 1.51 468.83 1.76 467.81 1.76ZM495.64-29.2L495.64-29.2Q495.64-28.27 495.47-27.42 495.3-26.56 494.86-25.93 494.42-25.29 493.69-24.93 492.95-24.56 491.88-24.56L491.88-24.56Q490.66-24.56 490.07-25.05 489.49-25.54 489.27-26.25 489.05-26.95 489.05-27.78 489.05-28.61 488.97-29.32 488.9-30.03 488.61-30.52 488.31-31.01 487.53-31.01L487.53-31.01Q486.8-31.01 486.34-29.88 485.87-28.76 485.58-27.29 485.29-25.83 485.19-24.44 485.09-23.05 485.09-22.56L485.09-22.56Q485.73-22.66 486.31-22.73 486.9-22.8 487.58-22.8L487.58-22.8Q488.27-22.8 489-22.66 489.73-22.51 490.36-22.19 491-21.88 491.39-21.31 491.78-20.75 491.78-19.92L491.78-19.92Q491.78-19.04 491.02-18.36 490.27-17.68 489.22-17.21 488.17-16.75 487.09-16.46 486.02-16.16 485.38-16.06L485.38-16.06Q485.53-12.7 485.53-9.28L485.53-9.28Q485.53-6.05 485.38-2.93L485.38-2.93Q485.29-1.42 484.33-0.44 483.38 0.54 481.87 0.54L481.87 0.54Q481.04 0.54 480.45 0.22 479.87-0.1 479.48-0.63 479.09-1.17 478.87-1.86 478.65-2.54 478.6-3.27L478.6-3.27Q478.35-6.2 478.21-9.16 478.06-12.11 478.11-15.09L478.11-15.09Q477.77-15.04 477.45-15.04 477.13-15.04 476.79-15.04L476.79-15.04Q476.2-15.04 475.37-15.19 474.54-15.33 473.79-15.7 473.03-16.06 472.49-16.6 471.96-17.14 471.96-17.97L471.96-17.97Q471.96-19.04 472.66-19.78 473.37-20.51 474.37-20.97 475.37-21.44 476.47-21.63 477.57-21.83 478.4-21.92L478.4-21.92 478.4-22.71Q478.4-25.1 478.84-27.83 479.28-30.57 480.4-32.91 481.53-35.25 483.48-36.79 485.43-38.33 488.46-38.33L488.46-38.33Q490.36-38.33 491.73-37.52 493.1-36.72 493.98-35.42 494.86-34.13 495.25-32.5 495.64-30.86 495.64-29.2ZM503.11 1.42L503.11 1.42Q500.62 1.42 498.76 0.1 496.91-1.22 495.64-3.27 494.37-5.32 493.73-7.84 493.1-10.35 493.1-12.79L493.1-12.79Q493.1-15.38 493.73-18.14 494.37-20.9 495.68-23.17 497-25.44 499.05-26.88 501.1-28.32 503.94-28.32L503.94-28.32Q506.67-28.32 508.6-26.83 510.53-25.34 511.7-23.12 512.87-20.9 513.36-18.26 513.85-15.63 513.7-13.28L513.7-13.28Q513.56-10.69 512.9-8.06 512.24-5.42 510.97-3.32 509.7-1.22 507.75 0.1 505.79 1.42 503.11 1.42ZM503.59-20.65L503.59-20.65Q502.86-20.65 502.3-19.87 501.74-19.09 501.37-17.97 501.01-16.85 500.81-15.6 500.62-14.36 500.62-13.43L500.62-13.43Q500.62-12.26 500.84-10.89 501.06-9.52 501.45-8.37 501.84-7.23 502.4-6.47 502.96-5.71 503.69-5.71L503.69-5.71Q504.47-5.71 505.04-6.45 505.6-7.18 505.94-8.3 506.28-9.42 506.43-10.77 506.57-12.11 506.57-13.28L506.57-13.28Q506.57-14.36 506.38-15.65 506.18-16.94 505.82-18.07 505.45-19.19 504.89-19.92 504.33-20.65 503.59-20.65ZM533.13-18.26L533.13-18.26Q532.45-18.21 531.96-18.38 531.47-18.55 530.98-18.75L530.98-18.75Q530.55-18.95 530.11-19.12 529.67-19.29 529.13-19.24L529.13-19.24Q528.15-19.19 527.4-18.7 526.64-18.21 526.03-17.48 525.42-16.75 524.98-15.84 524.54-14.94 524.3-14.06L524.3-14.06Q524.15-13.48 524.08-12.28 524-11.08 524-9.72L524-9.72Q523.95-8.3 523.95-7.03 523.95-5.76 523.86-5.03L523.86-5.03Q523.81-4.25 523.61-3.2 523.42-2.15 523-1.22 522.59-0.29 521.9 0.34 521.22 0.98 520.14 0.98L520.14 0.98Q519.31 0.98 518.7 0.49 518.09 0 517.68-0.81 517.26-1.61 517-2.69 516.73-3.76 516.58-4.88L516.58-4.88Q516.43-6.05 516.36-7.23 516.29-8.4 516.26-9.45 516.24-10.5 516.26-11.38 516.29-12.26 516.29-12.79L516.29-12.79Q516.24-14.5 516.12-16.24 515.99-17.97 515.99-19.68L515.99-19.68Q515.99-20.75 516.09-22.07 516.19-23.39 516.63-24.54 517.07-25.68 517.92-26.46 518.78-27.25 520.29-27.25L520.29-27.25Q521.12-27.25 521.71-26.71 522.29-26.17 522.66-25.39 523.03-24.61 523.22-23.73 523.42-22.85 523.47-22.12L523.47-22.12Q524.64-24.02 526.1-25.22 527.57-26.42 529.91-26.51L529.91-26.51Q531.08-26.56 532.23-26.29 533.38-26.03 534.33-25.42 535.28-24.8 535.89-23.83 536.5-22.85 536.55-21.53L536.55-21.53Q536.65-19.97 535.62-19.14 534.6-18.31 533.13-18.26ZM566.92-16.11L566.92-16.11Q566.92-15.19 566.92-13.6 566.92-12.01 566.85-10.16 566.77-8.3 566.53-6.42 566.28-4.54 565.77-3.03 565.26-1.51 564.48-0.54 563.7 0.44 562.48 0.44L562.48 0.44Q561.4 0.44 560.84-0.46 560.28-1.37 560.03-2.59 559.79-3.81 559.77-5.08 559.74-6.35 559.74-7.08L559.74-7.08Q559.74-9.28 559.89-11.38 560.03-13.48 560.03-15.67L560.03-15.67Q560.03-15.92 560.03-16.55 560.03-17.19 559.94-17.82 559.84-18.46 559.62-18.95 559.4-19.43 558.96-19.43L558.96-19.43Q558.08-19.43 557.54-18.53 557.01-17.63 556.67-16.41 556.32-15.19 556.18-13.99 556.03-12.79 555.98-12.21L555.98-12.21Q555.88-11.57 555.81-10.3 555.74-9.03 555.62-7.52 555.49-6.01 555.23-4.42 554.96-2.83 554.54-1.54 554.13-0.24 553.49 0.59 552.86 1.42 551.93 1.42L551.93 1.42Q550.76 1.42 550.12 0.39 549.49-0.63 549.2-2 548.9-3.37 548.83-4.79 548.76-6.2 548.76-6.98L548.76-6.98Q548.76-7.81 548.78-8.59 548.8-9.38 548.8-10.21L548.8-10.21Q548.8-10.55 548.8-11.33 548.8-12.11 548.78-13.06 548.76-14.01 548.68-15.04 548.61-16.06 548.46-16.92 548.32-17.77 548.02-18.31 547.73-18.85 547.34-18.85L547.34-18.85Q546.7-18.85 546.17-18.04 545.63-17.24 545.24-16.14 544.85-15.04 544.63-13.96 544.41-12.89 544.41-12.4L544.41-12.4 544.41-12.11Q544.41-9.77 544.7-7.52 545-5.27 545-2.93L545-2.93Q545-1.56 544.12-0.42 543.24 0.73 541.68 0.73L541.68 0.73Q540.55 0.73 539.82-0.12 539.09-0.98 538.6-2.34 538.11-3.71 537.84-5.35 537.57-6.98 537.48-8.57 537.38-10.16 537.35-11.45 537.33-12.74 537.33-13.38L537.33-13.38Q537.33-14.11 537.31-15.53 537.28-16.94 537.35-18.6 537.43-20.26 537.62-22 537.82-23.73 538.26-25.15 538.7-26.56 539.41-27.47 540.11-28.37 541.24-28.37L541.24-28.37Q542.51-28.37 543.31-27.69 544.12-27 544.12-25.63L544.12-25.63Q544.12-25.34 544.09-25.05 544.07-24.76 544.02-24.51L544.02-24.51Q544.56-25.29 545.34-26.1 546.12-26.9 547.02-27.56 547.93-28.22 548.95-28.64 549.98-29.05 551-29.05L551-29.05Q551.98-29.05 552.76-28.52 553.54-27.98 554.13-27.17 554.71-26.37 555.1-25.44 555.49-24.51 555.64-23.68L555.64-23.68Q556.13-24.56 556.84-25.46 557.54-26.37 558.37-27.05 559.2-27.73 560.21-28.17 561.21-28.61 562.28-28.61L562.28-28.61Q563.31-28.61 564.04-27.88 564.77-27.15 565.31-26 565.85-24.85 566.14-23.41 566.43-21.97 566.63-20.58 566.82-19.19 566.87-17.99 566.92-16.8 566.92-16.11Z" opacity="1" transform="matrix(1,0,0,1,0,0)" fill="#ffffff" class="slogan-text-1" data-fill-palette-color="secondary" id="text-1"></path></svg></g></svg></g></svg></g></svg></g><g><svg viewBox="0 0 91.7669116096159 125.01393244775787" height="125.01393244775787" width="91.7669116096159"><g><svg xmlns="http://www.w3.org/2000/svg" data-name="Layer 1" viewBox="16.99998506834903 0 93.95884487466584 128" x="0" y="0" height="125.01393244775787" width="91.7669116096159" class="icon-icon-0" data-fill-palette-color="accent" id="icon-0"><path d="M66.705 47.13a12.078 12.078 0 0 0-5.424 1.283 12.116 12.116 0 0 0-14.659 2.101 12.601 12.601 0 0 0 0 17.517l11.659 11.924a4 4 0 0 0 5.72 0L75.66 68.031a4.023 4.023 0 0 0 0.432-0.523 12.566 12.566 0 0 0-0.709-16.71A12.052 12.052 0 0 0 66.705 47.13Zm6.095 18.105L61.141 77.159 49.482 65.235a8.568 8.568 0 0 1 0-11.924 8.115 8.115 0 0 1 11.659 0l0.014 0.014a8.106 8.106 0 0 1 11.368 0.27 8.563 8.563 0 0 1 0.263 11.625Z" fill="#ffffff" data-fill-palette-color="accent"></path><path d="M29.937 97.417l0.631 0.922c3.955 5.771 8.044 11.74 8.966 18.143a69.166 69.166 0 0 1 0.494 7.496A4 4 0 0 0 44.028 128h37.857a4 4 0 0 0 4-4v-5.677a5.668 5.668 0 0 1 5.698-5.624l0.081 0.001 0.112 0.001 0.186 0.001c5.148 0 7.614-2.155 8.776-3.963 1.658-2.588 1.455-5.538 1.093-7.819-0.068-0.45-0.145-0.907-0.23-1.365a5.558 5.558 0 0 0 2.806-2.828 5.306 5.306 0 0 0 0.055-4.01 4.513 4.513 0 0 0 1.016-1.324 5.502 5.502 0 0 0-0.173-4.91l0.537-0.202c0.512-0.194 1.025-0.389 1.541-0.58q0.186-0.069 0.365-0.157a5.572 5.572 0 0 0 3.143-3.939 7.291 7.291 0 0 0-1.768-5.831c-5.899-7.933-5.611-13.108-5.592-13.366q0.006-0.052 0.012-0.104c1.45-14.668-8.27-31.024-22.611-38.044A42.829 42.829 0 0 0 62.192 20 45.774 45.774 0 0 0 47.882 22.301 45.288 45.288 0 0 0 17.033 63.392C16.456 77.669 23.618 88.161 29.937 97.417ZM21.029 63.555A41.081 41.081 0 0 1 49.131 26.101 41.926 41.926 0 0 1 62.192 24a38.586 38.586 0 0 1 16.981 3.852c12.127 5.937 21.735 20.441 20.389 34.058 0 0-0.956 6.481 6.431 16.357 0 0 2.265 2.577 0 3.683-0.908 0.337-1.806 0.683-2.704 1.019a4.557 4.557 0 0 0-2.074 1.221c-0.793 1.029-0.42 2.26 0.124 3.318 0.296 0.567 1.261 2.221 0.048 2.394-0.726 0.5-1.452 1-2.188 1.491-0.105 0.067-0.105 0.423-0.01 0.538 0.268 0.308 0.526 0.625 0.765 0.952a7.283 7.283 0 0 1 0.669 1.029 1.424 1.424 0 0 1-1.023 2.135 2.196 2.196 0 0 0-2.264 2.654c0.22 0.942 0.401 1.894 0.544 2.846 0.258 1.625 0.43 3.567-0.506 5.029-1.127 1.753-3.488 2.126-5.412 2.126q-0.075 0-0.149-0.001l-0.097-0.001c-0.045-0.001-0.089-0.001-0.133-0.001a9.642 9.642 0 0 0-9.698 9.624V124h-37.857a73.589 73.589 0 0 0-0.535-8.087c-1.108-7.702-6.001-14.53-10.252-20.751C26.676 85.546 20.523 76.084 21.029 63.555Z" fill="#ffffff" data-fill-palette-color="accent"></path><path d="M62 2v9.09a2 2 0 0 0 4 0V2a2 2 0 0 0-4 0Z" fill="#ffffff" data-fill-palette-color="accent"></path><path d="M98.535 29.464a1.999 1.999 0 0 0 2.828 0l7.89-7.89a2 2 0 0 0-2.828-2.828l-7.89 7.89A1.999 1.999 0 0 0 98.535 29.464Z" fill="#ffffff" data-fill-palette-color="accent"></path><path d="M18.746 18.746a1.999 1.999 0 0 0 0 2.828l4.89 4.89a2 2 0 0 0 2.828-2.828l-4.89-4.89A1.999 1.999 0 0 0 18.746 18.746Z" fill="#ffffff" data-fill-palette-color="accent"></path><path d="M38.708 5.203A2.001 2.001 0 0 0 37.663 7.832l3.12 7.24a2 2 0 0 0 3.674-1.584L41.337 6.248A2.003 2.003 0 0 0 38.708 5.203Z" fill="#ffffff" data-fill-palette-color="accent"></path><path d="M85.092 5.659L81.322 15.108a2 2 0 1 0 3.714 1.483L88.807 7.142A2 2 0 1 0 85.092 5.659Z" fill="#ffffff" data-fill-palette-color="accent"></path><path d="M53.067 94.987a7.997 7.997 0 1 0 0.524-3.992A27.997 27.997 0 1 1 88.999 64a2 2 0 1 0 4 0A32 32 0 1 0 53.067 94.987ZM61 90a4 4 0 1 1-4 4A4.004 4.004 0 0 1 61 90Z" fill="#ffffff" data-fill-palette-color="accent"></path></svg></g></svg></g></svg></g><defs></defs></svg><rect width="395.52" height="92.81679929228561" fill="none" stroke="none" visibility="hidden"></rect></g></svg></g></svg>